<svg xmlns="http://www.w3.org/2000/svg" viewBox="0 0 100 100">
  <defs>
    <linearGradient id="logo-gradient" x1="0%" y1="0%" x2="100%" y2="100%">
      <stop offset="0%" stopColor="#6D28D9" />
      <stop offset="100%" stopColor="#C9A96E" />
    </linearGradient>
  </defs>
  
  <g opacity="1">
    <ellipse cx="50" cy="50" rx="35" ry="15" fill="none" stroke="url(#logo-gradient)" stroke-width="3.5" transform="rotate(0 50 50)" />
    <ellipse cx="50" cy="50" rx="35" ry="15" fill="none" stroke="url(#logo-gradient)" stroke-width="3.5" transform="rotate(60 50 50)" />
    <ellipse cx="50" cy="50" rx="35" ry="15" fill="none" stroke="url(#logo-gradient)" stroke-width="3.5" transform="rotate(120 50 50)" />
    <ellipse cx="50" cy="50" rx="35" ry="15" fill="none" stroke="url(#logo-gradient)" stroke-width="3.5" transform="rotate(180 50 50)" />
    <ellipse cx="50" cy="50" rx="35" ry="15" fill="none" stroke="url(#logo-gradient)" stroke-width="3.5" transform="rotate(240 50 50)" />
    <ellipse cx="50" cy="50" rx="35" ry="15" fill="none" stroke="url(#logo-gradient)" stroke-width="3.5" transform="rotate(300 50 50)" />
  </g>
  
  <g transform="translate(50, 52)">
    <circle cx="0" cy="-10" r="8" fill="url(#logo-gradient)" />
    <path d="M -15 11 C -15 0, 15 0, 15 11 L 15 16 L -15 16 Z" fill="url(#logo-gradient)" />
  </g>
</svg>
